<?xml version="1.0" encoding="UTF-8"?>
<!-- Generated by Pixelmator Pro 4.0 -->
<svg width="1080" height="1080" viewBox="0 0 1080 1080" xmlns="http://www.w3.org/2000/svg">
    <path id="Rectngulo" fill="#ffffff" fill-rule="evenodd" stroke="#ffffff" stroke-width="12" d="M 1039 966 L 1039 114 C 1039 69.8172 1003.1828 34 959 34 L 120 34 C 75.817215 34 40 69.8172 40 114 L 40 966 C 40 1010.1828 75.817215 1046 120 1046 L 959 1046 C 1003.1828 1046 1039 1010.1828 1039 966 Z M 169.5 761.140625 L 169.5 387.265625 L 463.648438 137.070313 L 614.421875 137.070313 L 291.601563 405.070313 L 291.601563 742.398438 L 367.453125 799.5625 L 595 601.84375 L 597.773438 540 L 560.773438 503.453125 L 644.023438 434.117188 L 718.953125 494.085938 L 723.578125 629.015625 L 395.203125 938.242188 L 356.351563 938.242188 Z M 789.25 688.054688 L 789.25 340.414063 L 712.476563 282.3125 L 484 475.34375 L 481.226563 537.1875 L 521.921875 569.046875 L 522.851563 598.09375 L 436.828125 659 L 358.203125 594.351563 L 358.203125 457.539063 L 703.226563 137.070313 L 912.273438 322.609375 L 912.273438 702.109375 L 615.351563 947.609375 L 459.953125 947.609375 Z"/>
</svg>
